<svg width="119" height="25" viewBox="0 0 119 25" fill="none" xmlns="http://www.w3.org/2000/svg">
<path d="M11.0564 24.4269C8.82543 24.4269 6.86787 23.9457 5.18371 22.9834C3.52142 22.021 2.2419 20.643 1.34514 18.8495C0.44838 17.056 0 14.9563 0 12.5503C0 10.1444 0.44838 8.0556 1.34514 6.28395C2.2419 4.49043 3.52142 3.11248 5.18371 2.15011C6.86787 1.18773 8.82543 0.706543 11.0564 0.706543C12.5 0.706543 13.856 0.925265 15.1246 1.36271C16.3932 1.77828 17.5196 2.3907 18.5039 3.19997C18.7882 3.4187 18.9851 3.64835 19.0944 3.88895C19.2038 4.12954 19.2585 4.42482 19.2585 4.77477C19.2585 5.25596 19.1272 5.66059 18.8648 5.98868C18.6023 6.31676 18.2852 6.4808 17.9133 6.4808C17.4759 6.4808 17.0275 6.3277 16.5682 6.02148C15.6277 5.32157 14.7528 4.84039 13.9435 4.57792C13.1342 4.29358 12.2375 4.15141 11.2532 4.15141C8.97853 4.15141 7.25063 4.86226 6.06953 6.28395C4.91031 7.70564 4.33069 9.79444 4.33069 12.5503C4.33069 15.3281 4.91031 17.4278 6.06953 18.8495C7.25063 20.2712 8.97853 20.9821 11.2532 20.9821C12.1937 20.9821 13.0577 20.8399 13.8451 20.5556C14.6544 20.2712 15.5621 19.79 16.5682 19.112C16.7869 18.9808 17.0056 18.8714 17.2243 18.7839C17.4431 18.6964 17.6727 18.6527 17.9133 18.6527C18.2852 18.6527 18.6023 18.8167 18.8648 19.1448C19.1272 19.4729 19.2585 19.8775 19.2585 20.3587C19.2585 20.6868 19.2038 20.9821 19.0944 21.2445C18.9851 21.4851 18.7882 21.7148 18.5039 21.9335C17.5196 22.7428 16.3932 23.3661 15.1246 23.8036C13.856 24.2191 12.5 24.4269 11.0564 24.4269Z" fill="white"/>
<path d="M29.2312 7.69471C31.4621 7.69471 33.1135 8.25245 34.1852 9.36793C35.2788 10.4615 35.8256 12.1348 35.8256 14.3876V22.3928C35.8256 22.9834 35.6506 23.4536 35.3007 23.8036C34.9507 24.1317 34.4695 24.2957 33.8571 24.2957C33.2884 24.2957 32.8182 24.1207 32.4464 23.7708C32.0964 23.4208 31.9214 22.9615 31.9214 22.3928V21.671C31.5496 22.5241 30.9591 23.1912 30.1498 23.6723C29.3624 24.1535 28.4438 24.3941 27.3939 24.3941C26.3222 24.3941 25.3488 24.1754 24.474 23.738C23.5991 23.3005 22.9101 22.699 22.407 21.9335C21.904 21.168 21.6524 20.315 21.6524 19.3745C21.6524 18.1934 21.9477 17.2638 22.5383 16.5858C23.1507 15.9077 24.1349 15.4156 25.491 15.1094C26.8471 14.8032 28.7172 14.6501 31.1012 14.6501H31.9214V13.8955C31.9214 12.8237 31.6918 12.0473 31.2325 11.5661C30.7731 11.063 30.0295 10.8115 29.0015 10.8115C28.3672 10.8115 27.722 10.9099 27.0658 11.1068C26.4096 11.2817 25.6332 11.5442 24.7364 11.8942C24.1677 12.1785 23.7522 12.3207 23.4897 12.3207C23.096 12.3207 22.7679 12.1785 22.5055 11.8942C22.2649 11.6098 22.1446 11.238 22.1446 10.7787C22.1446 10.4069 22.2321 10.0897 22.407 9.82725C22.6039 9.54291 22.921 9.28044 23.3585 9.03985C24.124 8.62428 25.0317 8.29619 26.0816 8.0556C27.1533 7.815 28.2032 7.69471 29.2312 7.69471ZM28.2141 21.4414C29.3077 21.4414 30.1935 21.0805 30.8716 20.3587C31.5715 19.6151 31.9214 18.6636 31.9214 17.5044V16.8154H31.3309C29.8654 16.8154 28.7281 16.881 27.9188 17.0123C27.1096 17.1435 26.5299 17.3732 26.18 17.7012C25.83 18.0293 25.6551 18.4777 25.6551 19.0464C25.6551 19.7463 25.8956 20.3259 26.3768 20.7852C26.8799 21.2227 27.4923 21.4414 28.2141 21.4414Z" fill="white"/>
<path d="M48.9502 7.76032C49.5189 7.71658 49.9673 7.83688 50.2954 8.12122C50.6234 8.40555 50.7875 8.83206 50.7875 9.40074C50.7875 9.99129 50.6453 10.4287 50.361 10.7131C50.0766 10.9974 49.5626 11.1833 48.819 11.2708L47.8347 11.3692C46.5443 11.5005 45.5928 11.9379 44.9804 12.6816C44.3899 13.4252 44.0946 14.3548 44.0946 15.4703V22.36C44.0946 22.9943 43.8977 23.4864 43.504 23.8364C43.1103 24.1645 42.6182 24.3285 42.0277 24.3285C41.4371 24.3285 40.945 24.1645 40.5513 23.8364C40.1795 23.4864 39.9936 22.9943 39.9936 22.36V9.66321C39.9936 9.05078 40.1795 8.58053 40.5513 8.25245C40.945 7.92437 41.4262 7.76032 41.9949 7.76032C42.5635 7.76032 43.0229 7.92437 43.3728 8.25245C43.7228 8.55866 43.8977 9.00704 43.8977 9.59759V10.9099C44.3133 9.94754 44.9257 9.20389 45.735 8.67896C46.5661 8.15402 47.4848 7.85875 48.4909 7.79313L48.9502 7.76032Z" fill="white"/>
<path d="M55.0136 24.3285C54.3793 24.3285 53.8653 24.1426 53.4716 23.7708C53.0998 23.3771 52.9139 22.8521 52.9139 22.196V3.00312C52.9139 2.36883 53.0888 1.87671 53.4388 1.52675C53.8106 1.1768 54.3137 1.00182 54.948 1.00182H63.0188C65.4904 1.00182 67.4151 1.62518 68.7931 2.87189C70.171 4.09673 70.86 5.82464 70.86 8.0556C70.86 10.2866 70.171 12.0254 68.7931 13.2721C67.4151 14.5188 65.4904 15.1422 63.0188 15.1422H57.1461V22.196C57.1461 22.8521 56.9493 23.3771 56.5556 23.7708C56.1838 24.1426 55.6698 24.3285 55.0136 24.3285ZM62.4939 11.8942C65.4029 11.8942 66.8574 10.6256 66.8574 8.08841C66.8574 5.55123 65.4029 4.28265 62.4939 4.28265H57.1461V11.8942H62.4939Z" fill="white"/>
<path d="M100.469 7.76032C101.038 7.71658 101.487 7.83688 101.815 8.12122C102.143 8.40555 102.307 8.83206 102.307 9.40074C102.307 9.99129 102.165 10.4287 101.88 10.7131C101.596 10.9974 101.082 11.1833 100.338 11.2708L99.354 11.3692C98.0635 11.5005 97.1121 11.9379 96.4997 12.6816C95.9091 13.4252 95.6138 14.3548 95.6138 15.4703V22.36C95.6138 22.9943 95.417 23.4864 95.0233 23.8364C94.6296 24.1645 94.1375 24.3285 93.5469 24.3285C92.9564 24.3285 92.4642 24.1645 92.0705 23.8364C91.6987 23.4864 91.5128 22.9943 91.5128 22.36V9.66321C91.5128 9.05078 91.6987 8.58053 92.0705 8.25245C92.4642 7.92437 92.9454 7.76032 93.5141 7.76032C94.0828 7.76032 94.5421 7.92437 94.8921 8.25245C95.242 8.55866 95.417 9.00704 95.417 9.59759V10.9099C95.8326 9.94754 96.445 9.20389 97.2543 8.67896C98.0854 8.15402 99.004 7.85875 100.01 7.79313L100.469 7.76032Z" fill="white"/>
<path d="M118.344 20.9493C118.781 21.3648 119 21.8351 119 22.36C119 22.8631 118.814 23.3115 118.442 23.7052C118.092 24.0989 117.677 24.2957 117.196 24.2957C116.714 24.2957 116.266 24.0989 115.85 23.7052L108.173 16.7498V22.36C108.173 22.9943 107.976 23.4755 107.583 23.8036C107.189 24.1317 106.697 24.2957 106.106 24.2957C105.516 24.2957 105.024 24.1317 104.63 23.8036C104.258 23.4755 104.072 22.9943 104.072 22.36V2.77347C104.072 2.13917 104.258 1.65798 104.63 1.3299C105.024 1.00182 105.516 0.837776 106.106 0.837776C106.697 0.837776 107.189 1.00182 107.583 1.3299C107.976 1.65798 108.173 2.13917 108.173 2.77347V15.1094L115.194 8.38368C115.588 7.98998 116.036 7.79313 116.539 7.79313C117.042 7.79313 117.48 7.97905 117.852 8.35087C118.224 8.7227 118.409 9.16014 118.409 9.66321C118.409 10.1663 118.202 10.6256 117.786 11.0412L112.635 15.8312L118.344 20.9493Z" fill="white"/>
<path fill-rule="evenodd" clip-rule="evenodd" d="M80.6391 6.63685C78.1594 6.63685 76.1491 8.70259 76.1491 11.2508C76.1491 12.7352 76.8302 14.0557 77.8926 14.9012L77.9933 14.9814L78.0694 15.0862C79.0825 16.481 80.1621 18.2855 80.6111 20.7397C80.8967 19.1816 81.6143 17.4034 83.2423 15.0658L83.3191 14.9556L83.4226 14.8715C84.4638 14.0249 85.1291 12.718 85.1291 11.2508C85.1291 8.70259 83.1189 6.63685 80.6391 6.63685ZM74.2783 11.2508C74.2783 7.64083 77.1261 4.71436 80.6391 4.71436C84.1521 4.71436 86.9999 7.64083 86.9999 11.2508C86.9999 13.2793 86.0997 15.0923 84.6909 16.2898C82.7166 19.1539 82.3548 20.9105 82.3182 22.4134C82.2961 23.3237 81.5872 24.1315 80.6274 24.1315C79.6898 24.1315 78.9864 23.3578 78.9355 22.4697C78.7796 19.7485 77.7271 17.8479 76.6422 16.3359C75.2019 15.1391 74.2783 13.3056 74.2783 11.2508Z" fill="#FFC408"/>
<circle cx="80.6394" cy="11.0754" r="2.34345" fill="#FFC408"/>
</svg>
