<svg width="403" height="714" viewBox="0 0 403 714" fill="none" xmlns="http://www.w3.org/2000/svg">
<path d="M191.811 149.91C191.811 149.91 116.943 61.7261 57.7131 81.6831C-1.51692 101.64 -5.33292 136.854 3.70008 176.445C12.7331 216.036 54.6611 209.738 64.9701 263.578C75.2791 317.418 114.806 332.016 144.029 329.926C173.252 327.836 216.263 204.059 216.263 204.059L191.811 149.91Z" fill="#DBF0F8"/>
<rect x="36" width="367" height="714"/>
<g filter="url(#filter0_d)">
<path d="M63.5 265C84.763 265 102 247.763 102 226.5C102 205.237 84.763 188 63.5 188C42.237 188 25 205.237 25 226.5C25 247.763 42.237 265 63.5 265Z" stroke="#FFC408" stroke-opacity="0.45" stroke-width="12" stroke-miterlimit="10"/>
</g>
<defs>
<filter id="filter0_d" x="19" y="182" width="99" height="101" filterUnits="userSpaceOnUse" color-interpolation-filters="sRGB">
<feFlood flood-opacity="0" result="BackgroundImageFix"/>
<feColorMatrix in="SourceAlpha" type="matrix" values="0 0 0 0 0 0 0 0 0 0 0 0 0 0 0 0 0 0 127 0"/>
<feOffset dx="10" dy="12"/>
<feColorMatrix type="matrix" values="0 0 0 0 0.184314 0 0 0 0 0.294118 0 0 0 0 0.431373 0 0 0 0.086 0"/>
<feBlend mode="normal" in2="BackgroundImageFix" result="effect1_dropShadow"/>
<feBlend mode="normal" in="SourceGraphic" in2="effect1_dropShadow" result="shape"/>
</filter>
</defs>
</svg>
