<svg width="439" height="719" viewBox="0 0 439 719" fill="none" xmlns="http://www.w3.org/2000/svg">
<path opacity="0.149" d="M283.898 310C369.502 310 438.898 240.604 438.898 155C438.898 69.3959 369.502 0 283.898 0C198.294 0 128.898 69.3959 128.898 155C128.898 240.604 198.294 310 283.898 310Z" fill="#00B7F3"/>
<rect y="17" width="361" height="702"/>
<g filter="url(#filter0_d)">
<path d="M383.147 263C404.41 263 421.647 245.763 421.647 224.5C421.647 203.237 404.41 186 383.147 186C361.884 186 344.647 203.237 344.647 224.5C344.647 245.763 361.884 263 383.147 263Z" stroke="#FFC408" stroke-opacity="0.45" stroke-width="12" stroke-miterlimit="10"/>
</g>
<defs>
<filter id="filter0_d" x="338.647" y="180" width="99" height="101" filterUnits="userSpaceOnUse" color-interpolation-filters="sRGB">
<feFlood flood-opacity="0" result="BackgroundImageFix"/>
<feColorMatrix in="SourceAlpha" type="matrix" values="0 0 0 0 0 0 0 0 0 0 0 0 0 0 0 0 0 0 127 0"/>
<feOffset dx="10" dy="12"/>
<feColorMatrix type="matrix" values="0 0 0 0 0.184314 0 0 0 0 0.294118 0 0 0 0 0.431373 0 0 0 0.086 0"/>
<feBlend mode="normal" in2="BackgroundImageFix" result="effect1_dropShadow"/>
<feBlend mode="normal" in="SourceGraphic" in2="effect1_dropShadow" result="shape"/>
</filter>
</defs>
</svg>
