<svg width="104" height="21" viewBox="0 0 104 21" fill="none" xmlns="http://www.w3.org/2000/svg">
<path d="M9.66273 20.7304C7.71298 20.7304 6.00217 20.3099 4.5303 19.4688C3.07755 18.6278 1.95931 17.4235 1.17558 15.8561C0.391861 14.2886 0 12.4535 0 10.3509C0 8.24821 0.391861 6.4227 1.17558 4.87437C1.95931 3.30693 3.07755 2.10267 4.5303 1.2616C6.00217 0.420535 7.71298 0 9.66273 0C10.9243 0 12.1095 0.191152 13.2182 0.573457C14.3268 0.936645 15.3113 1.47187 16.1715 2.17913C16.42 2.37028 16.592 2.57099 16.6876 2.78126C16.7831 2.99153 16.8309 3.24958 16.8309 3.55543C16.8309 3.97596 16.7162 4.32959 16.4869 4.61632C16.2575 4.90305 15.9803 5.04641 15.6553 5.04641C15.273 5.04641 14.8812 4.9126 14.4798 4.64499C13.6578 4.03331 12.8932 3.61277 12.1859 3.38339C11.4787 3.13489 10.695 3.01064 9.83477 3.01064C7.84679 3.01064 6.33669 3.63189 5.30447 4.87437C4.29136 6.11686 3.78481 7.94236 3.78481 10.3509C3.78481 12.7785 4.29136 14.6136 5.30447 15.8561C6.33669 17.0985 7.84679 17.7198 9.83477 17.7198C10.6567 17.7198 11.4118 17.5955 12.0999 17.347C12.8072 17.0985 13.6005 16.678 14.4798 16.0854C14.6709 15.9707 14.8621 15.8752 15.0532 15.7987C15.2444 15.7222 15.4451 15.684 15.6553 15.684C15.9803 15.684 16.2575 15.8274 16.4869 16.1141C16.7162 16.4008 16.8309 16.7545 16.8309 17.175C16.8309 17.4617 16.7831 17.7198 16.6876 17.9492C16.592 18.1594 16.42 18.3601 16.1715 18.5513C15.3113 19.2586 14.3268 19.8033 13.2182 20.1856C12.1095 20.5488 10.9243 20.7304 9.66273 20.7304Z" fill="#3684EB"/>
<path d="M25.5466 6.1073C27.4963 6.1073 28.9395 6.59474 29.8761 7.56962C30.8319 8.52538 31.3098 9.98769 31.3098 11.9566V18.9527C31.3098 19.4688 31.1569 19.8798 30.851 20.1856C30.5452 20.4724 30.1246 20.6157 29.5894 20.6157C29.0924 20.6157 28.6814 20.4628 28.3565 20.157C28.0506 19.8511 27.8977 19.4497 27.8977 18.9527V18.3219C27.5728 19.0674 27.0567 19.6504 26.3494 20.071C25.6612 20.4915 24.8584 20.7018 23.9409 20.7018C23.0042 20.7018 22.1536 20.5106 21.389 20.1283C20.6244 19.746 20.0223 19.2203 19.5826 18.5513C19.143 17.8823 18.9231 17.1368 18.9231 16.3148C18.9231 15.2826 19.1812 14.4702 19.6973 13.8776C20.2325 13.2851 21.0927 12.855 22.2779 12.5874C23.463 12.3197 25.0973 12.1859 27.1809 12.1859H27.8977V11.5265C27.8977 10.5898 27.697 9.91123 27.2956 9.49069C26.8942 9.05104 26.2443 8.83122 25.3458 8.83122C24.7915 8.83122 24.2276 8.91724 23.6542 9.08927C23.0807 9.2422 22.4021 9.47158 21.6184 9.77742C21.1214 10.0259 20.7582 10.1502 20.5288 10.1502C20.1847 10.1502 19.898 10.0259 19.6686 9.77742C19.4584 9.52892 19.3532 9.20397 19.3532 8.80255C19.3532 8.47759 19.4297 8.20042 19.5826 7.97104C19.7547 7.72254 20.0318 7.49316 20.4141 7.28289C21.0832 6.9197 21.8764 6.63297 22.794 6.4227C23.7306 6.21244 24.6481 6.1073 25.5466 6.1073ZM24.6577 18.1212C25.6135 18.1212 26.3876 17.8058 26.9802 17.175C27.5919 16.5251 27.8977 15.6936 27.8977 14.6805V14.0783H27.3816C26.1009 14.0783 25.1069 14.1357 24.3996 14.2504C23.6924 14.3651 23.1858 14.5658 22.88 14.8525C22.5741 15.1392 22.4212 15.5311 22.4212 16.0281C22.4212 16.6398 22.6315 17.1463 23.052 17.5477C23.4917 17.93 24.0269 18.1212 24.6577 18.1212Z" fill="#3684EB"/>
<path d="M42.78 6.16465C43.277 6.12642 43.6689 6.23155 43.9556 6.48005C44.2423 6.72855 44.3857 7.10129 44.3857 7.59829C44.3857 8.1144 44.2614 8.4967 44.013 8.7452C43.7645 8.9937 43.3152 9.15618 42.6653 9.23264L41.8051 9.31866C40.6773 9.43335 39.8458 9.81565 39.3106 10.4656C38.7945 11.1155 38.5364 11.9279 38.5364 12.9028V18.924C38.5364 19.4784 38.3644 19.9085 38.0203 20.2143C37.6763 20.501 37.2462 20.6444 36.7301 20.6444C36.214 20.6444 35.7839 20.501 35.4398 20.2143C35.1148 19.9085 34.9524 19.4784 34.9524 18.924V7.82767C34.9524 7.29245 35.1148 6.88147 35.4398 6.59474C35.7839 6.30801 36.2044 6.16465 36.7014 6.16465C37.1984 6.16465 37.5998 6.30801 37.9056 6.59474C38.2115 6.86235 38.3644 7.25422 38.3644 7.77033V8.91724C38.7276 8.07617 39.2628 7.42625 39.9701 6.96749C40.6965 6.50872 41.4993 6.25067 42.3786 6.19332L42.78 6.16465Z" fill="#3684EB"/>
<path d="M48.0791 20.6444C47.5248 20.6444 47.0756 20.4819 46.7315 20.157C46.4065 19.8129 46.2441 19.3541 46.2441 18.7807V2.00709C46.2441 1.45275 46.397 1.02266 46.7028 0.716821C47.0278 0.410977 47.4674 0.258055 48.0218 0.258055H55.0753C57.2353 0.258055 58.9174 0.802838 60.1217 1.89241C61.3259 2.96286 61.9281 4.47296 61.9281 6.4227C61.9281 8.37245 61.3259 9.89211 60.1217 10.9817C58.9174 12.0712 57.2353 12.616 55.0753 12.616H49.9428V18.7807C49.9428 19.3541 49.7708 19.8129 49.4267 20.157C49.1018 20.4819 48.6526 20.6444 48.0791 20.6444ZM54.6165 9.77742C57.1588 9.77742 58.43 8.66874 58.43 6.45138C58.43 4.23402 57.1588 3.12533 54.6165 3.12533H49.9428V9.77742H54.6165Z" fill="#3684EB"/>
<path d="M87.8053 6.16465C88.3022 6.12642 88.6941 6.23155 88.9808 6.48005C89.2676 6.72855 89.4109 7.10129 89.4109 7.59829C89.4109 8.1144 89.2867 8.4967 89.0382 8.7452C88.7897 8.9937 88.3405 9.15618 87.6906 9.23264L86.8304 9.31866C85.7026 9.43335 84.8711 9.81565 84.3358 10.4656C83.8197 11.1155 83.5617 11.9279 83.5617 12.9028V18.924C83.5617 19.4784 83.3896 19.9085 83.0456 20.2143C82.7015 20.501 82.2714 20.6444 81.7553 20.6444C81.2392 20.6444 80.8091 20.501 80.465 20.2143C80.1401 19.9085 79.9776 19.4784 79.9776 18.924V7.82767C79.9776 7.29245 80.1401 6.88147 80.465 6.59474C80.8091 6.30801 81.2296 6.16465 81.7266 6.16465C82.2236 6.16465 82.625 6.30801 82.9309 6.59474C83.2367 6.86235 83.3896 7.25422 83.3896 7.77033V8.91724C83.7528 8.07617 84.2881 7.42625 84.9953 6.96749C85.7217 6.50872 86.5245 6.25067 87.4038 6.19332L87.8053 6.16465Z" fill="#3684EB"/>
<path d="M103.427 17.6911C103.809 18.0543 104 18.4653 104 18.924C104 19.3637 103.838 19.7556 103.513 20.0996C103.207 20.4437 102.844 20.6157 102.423 20.6157C102.002 20.6157 101.611 20.4437 101.247 20.0996L94.538 14.021V18.924C94.538 19.4784 94.3659 19.8989 94.0219 20.1856C93.6778 20.4724 93.2477 20.6157 92.7316 20.6157C92.2155 20.6157 91.7854 20.4724 91.4413 20.1856C91.1164 19.8989 90.9539 19.4784 90.9539 18.924V1.80639C90.9539 1.25205 91.1164 0.831511 91.4413 0.544783C91.7854 0.258055 92.2155 0.114691 92.7316 0.114691C93.2477 0.114691 93.6778 0.258055 94.0219 0.544783C94.3659 0.831511 94.538 1.25205 94.538 1.80639V12.5874L100.674 6.70943C101.018 6.36536 101.41 6.19332 101.85 6.19332C102.289 6.19332 102.671 6.3558 102.996 6.68076C103.321 7.00572 103.484 7.38802 103.484 7.82767C103.484 8.26732 103.302 8.66874 102.939 9.03193L98.4375 13.2182L103.427 17.6911Z" fill="#3684EB"/>
<path fill-rule="evenodd" clip-rule="evenodd" d="M70.4748 5.18211C68.3076 5.18211 66.5508 6.98747 66.5508 9.21449C66.5508 10.5118 67.146 11.6658 68.0745 12.4048L68.1625 12.4748L68.229 12.5664C69.1144 13.7854 70.0579 15.3624 70.4503 17.5073C70.6999 16.1456 71.327 14.5915 72.7499 12.5486L72.817 12.4523L72.9074 12.3788C73.8173 11.6389 74.3988 10.4967 74.3988 9.21449C74.3988 6.98747 72.642 5.18211 70.4748 5.18211ZM64.9158 9.21449C64.9158 6.05955 67.4046 3.50195 70.4748 3.50195C73.5449 3.50195 76.0338 6.05955 76.0338 9.21449C76.0338 10.9873 75.2471 12.5717 74.0159 13.6183C72.2904 16.1214 71.9742 17.6566 71.9423 18.97C71.9229 19.7656 71.3033 20.4716 70.4646 20.4716C69.6451 20.4716 69.0304 19.7954 68.986 19.0192C68.8497 16.6411 67.9298 14.98 66.9817 13.6586C65.7229 12.6126 64.9158 11.0102 64.9158 9.21449Z" fill="#FFC408"/>
<circle cx="70.4748" cy="9.06173" r="2.04806" fill="#FFC408"/>
</svg>
